<svg xmlns="http://www.w3.org/2000/svg" xmlns:xlink="http://www.w3.org/1999/xlink" width="140" zoomAndPan="magnify" viewBox="0 0 104.88 30.000001" height="40" preserveAspectRatio="xMidYMid meet" version="1.0"><defs><g/><clipPath id="bf271037d2"><path d="M 8.355469 4.128906 L 29.402344 4.128906 L 29.402344 25.175781 L 8.355469 25.175781 Z M 8.355469 4.128906 " clip-rule="nonzero"/></clipPath></defs><g clip-path="url(#bf271037d2)"><path stroke-linecap="butt" transform="matrix(0.181731, 0, 0, 0.181731, 8.361224, 4.133428)" fill-opacity="1" fill="#000000" fill-rule="evenodd" stroke-linejoin="miter" d="M 57.939358 0.039602 C 89.815899 0.039602 115.824406 26.048109 115.824406 57.924651 C 115.824406 89.822687 89.815899 115.831194 57.939358 115.831194 C 26.041321 115.831194 0.0328145 89.822687 0.0328145 57.924651 C 0.0328145 26.048109 26.041321 0.039602 57.939358 0.039602 Z M 57.939358 7.756176 C 85.559962 7.756176 108.107833 30.304046 108.107833 57.924651 C 108.107833 85.56675 85.559962 108.11462 57.939358 108.11462 C 30.297259 108.11462 7.749388 85.56675 7.749388 57.924651 C 7.749388 30.304046 30.297259 7.756176 57.939358 7.756176 Z M 57.939358 7.756176 " stroke="#000000" stroke-width="0.076" stroke-opacity="1" stroke-miterlimit="4"/></g><path stroke-linecap="butt" transform="matrix(0.181731, 0, 0, 0.181731, 8.361224, 4.133428)" fill-opacity="1" fill="#000000" fill-rule="evenodd" stroke-linejoin="miter" d="M 48.223783 24.307043 C 50.394741 24.307043 52.157301 26.091098 52.157301 28.262056 L 52.157301 58.010629 C 52.157301 58.590984 52.587194 59.085361 53.167549 59.085361 C 53.747904 59.085361 54.156302 58.590984 54.156302 58.010629 L 54.156302 22.587473 C 54.156302 20.416515 55.918862 18.63246 58.08982 18.63246 C 60.260778 18.63246 62.023338 20.416515 62.023338 22.587473 L 62.023338 57.989135 C 62.023338 58.56949 62.388747 59.085361 63.012091 59.085361 C 63.613941 59.085361 64.000844 58.56949 64.000844 57.96764 L 64.000844 25.08085 C 64.000844 22.931387 65.784899 21.147332 67.955857 21.147332 C 70.10532 21.147332 71.889375 22.931387 71.889375 25.08085 L 71.889375 58.032124 C 71.889375 58.590984 72.297773 59.085361 72.878128 59.085361 C 73.458483 59.085361 73.866881 58.56949 73.866881 58.010629 L 73.866881 34.065607 C 73.866881 32.174079 75.328516 30.604971 77.091076 30.604971 C 78.875131 30.604971 80.315271 32.174079 80.315271 34.065607 L 80.315271 80.451027 C 80.315271 86.40504 75.457484 91.284322 69.503471 91.284322 L 44.204287 91.284322 C 39.991339 91.284322 35.82138 89.263827 33.45697 83.868674 L 20.474211 54.270563 C 20.474211 54.270563 20.732147 54.098606 21.742395 53.582735 C 25.310504 51.712701 29.265516 52.185583 31.135549 55.710703 L 38.830628 70.30556 C 40.829629 74.088615 44.268771 73.422282 44.268771 68.607484 L 44.268771 58.096608 L 44.290265 58.096608 L 44.290265 28.262056 C 44.290265 26.091098 46.052825 24.307043 48.223783 24.307043 Z M 48.223783 24.307043 " stroke="#000000" stroke-width="0.076" stroke-opacity="1" stroke-miterlimit="4"/><g fill="#000000" fill-opacity="1"><g transform="translate(31.808443, 23.015527)"><g><path d="M 1.515625 0 L 1.515625 -17.359375 L 8.359375 -17.359375 C 9.671875 -17.359375 10.789062 -17.109375 11.71875 -16.609375 C 12.644531 -16.109375 13.351562 -15.414062 13.84375 -14.53125 C 14.332031 -13.644531 14.578125 -12.628906 14.578125 -11.484375 C 14.578125 -10.328125 14.328125 -9.304688 13.828125 -8.421875 C 13.335938 -7.546875 12.617188 -6.859375 11.671875 -6.359375 C 10.734375 -5.867188 9.597656 -5.625 8.265625 -5.625 L 5.1875 -5.625 L 5.1875 0 Z M 5.1875 -8.578125 L 7.671875 -8.578125 C 8.722656 -8.578125 9.503906 -8.84375 10.015625 -9.375 C 10.535156 -9.914062 10.796875 -10.617188 10.796875 -11.484375 C 10.796875 -12.347656 10.535156 -13.039062 10.015625 -13.5625 C 9.503906 -14.09375 8.71875 -14.359375 7.65625 -14.359375 L 5.1875 -14.359375 Z M 5.1875 -8.578125 "/></g></g></g><g fill="#000000" fill-opacity="1"><g transform="translate(47.263847, 23.015527)"><g><path d="M 5.15625 0.25 C 3.914062 0.25 2.882812 -0.0703125 2.0625 -0.71875 C 1.238281 -1.375 0.828125 -2.347656 0.828125 -3.640625 C 0.828125 -4.609375 1.054688 -5.367188 1.515625 -5.921875 C 1.972656 -6.472656 2.570312 -6.878906 3.3125 -7.140625 C 4.0625 -7.398438 4.863281 -7.566406 5.71875 -7.640625 C 6.851562 -7.753906 7.660156 -7.875 8.140625 -8 C 8.628906 -8.125 8.875 -8.394531 8.875 -8.8125 L 8.875 -8.875 C 8.875 -9.40625 8.707031 -9.816406 8.375 -10.109375 C 8.039062 -10.410156 7.5625 -10.5625 6.9375 -10.5625 C 6.289062 -10.5625 5.773438 -10.414062 5.390625 -10.125 C 5.003906 -9.84375 4.75 -9.488281 4.625 -9.0625 L 1.28125 -9.328125 C 1.53125 -10.515625 2.148438 -11.453125 3.140625 -12.140625 C 4.128906 -12.835938 5.398438 -13.1875 6.953125 -13.1875 C 7.921875 -13.1875 8.828125 -13.035156 9.671875 -12.734375 C 10.515625 -12.429688 11.191406 -11.953125 11.703125 -11.296875 C 12.222656 -10.648438 12.484375 -9.8125 12.484375 -8.78125 L 12.484375 0 L 9.0625 0 L 9.0625 -1.8125 L 8.96875 -1.8125 C 8.644531 -1.207031 8.164062 -0.710938 7.53125 -0.328125 C 6.90625 0.0546875 6.113281 0.25 5.15625 0.25 Z M 6.1875 -2.25 C 6.976562 -2.25 7.628906 -2.476562 8.140625 -2.9375 C 8.648438 -3.394531 8.90625 -3.96875 8.90625 -4.65625 L 8.90625 -6.03125 C 8.757812 -5.9375 8.535156 -5.851562 8.234375 -5.78125 C 7.941406 -5.707031 7.628906 -5.644531 7.296875 -5.59375 C 6.960938 -5.539062 6.660156 -5.492188 6.390625 -5.453125 C 5.753906 -5.359375 5.242188 -5.175781 4.859375 -4.90625 C 4.472656 -4.644531 4.28125 -4.257812 4.28125 -3.75 C 4.28125 -3.257812 4.457031 -2.882812 4.8125 -2.625 C 5.175781 -2.375 5.632812 -2.25 6.1875 -2.25 Z M 6.1875 -2.25 "/></g></g></g><g fill="#000000" fill-opacity="1"><g transform="translate(61.109312, 23.015527)"><g><path d="M 1.515625 0 L 1.515625 -17.359375 L 8.359375 -17.359375 C 10.328125 -17.359375 11.851562 -16.84375 12.9375 -15.8125 C 14.03125 -14.789062 14.578125 -13.414062 14.578125 -11.6875 C 14.578125 -10.5 14.3125 -9.484375 13.78125 -8.640625 C 13.257812 -7.804688 12.503906 -7.175781 11.515625 -6.75 L 15.203125 0 L 11.15625 0 L 7.859375 -6.15625 L 5.1875 -6.15625 L 5.1875 0 Z M 5.1875 -9.109375 L 7.671875 -9.109375 C 9.753906 -9.109375 10.796875 -9.96875 10.796875 -11.6875 C 10.796875 -13.46875 9.75 -14.359375 7.65625 -14.359375 L 5.1875 -14.359375 Z M 5.1875 -9.109375 "/></g></g></g><g fill="#000000" fill-opacity="1"><g transform="translate(76.768074, 23.015527)"><g><path d="M 4.5 0 L 0.5625 0 L 6.5625 -17.359375 L 11.296875 -17.359375 L 17.28125 0 L 13.34375 0 L 12.0625 -3.953125 L 5.796875 -3.953125 Z M 6.71875 -6.828125 L 11.125 -6.828125 L 9 -13.390625 L 8.859375 -13.390625 Z M 6.71875 -6.828125 "/></g></g></g></svg>